<?xml version="1.0" encoding="iso-8859-1"?>
<!-- Uploaded to: SVG Repo, www.svgrepo.com, Generator: SVG Repo Mixer Tools -->
<svg height="800px" width="800px" version="1.1" id="Layer_1" xmlns="http://www.w3.org/2000/svg" xmlns:xlink="http://www.w3.org/1999/xlink" 
	 viewBox="0 0 512 512" xml:space="preserve">
<path style="fill:#F5C882;" d="M335.035,151.963c-11.88-1.932-22.146,7.186-22.146,18.703v-17.948
	c0-9.446-6.455-18.202-15.778-19.719c-11.88-1.932-22.148,7.188-22.148,18.705v-8.468c0-9.446-6.454-18.202-15.78-19.718
	c-11.88-1.931-22.146,7.187-22.146,18.705v9.481c0-11.516-10.267-20.636-22.148-18.703c-9.324,1.517-15.778,10.272-15.778,19.719
	v131.725l-31.973-38.367c-5.848-7.017-16.287-9.08-23.751-3.815c-7.797,5.499-9.639,15.5-5.292,23.11l54.117,94.705
	c10.13,17.724,28.979,28.664,49.394,28.664h61.801c26.182,0,47.407-21.225,47.407-47.407V171.68
	C350.815,162.234,344.36,153.479,335.035,151.963z"/>
<g>
	<path style="fill:#F5AF73;" d="M246.519,256c-5.241,0-9.481-4.245-9.481-9.481V142.222c0-5.236,4.241-9.481,9.481-9.481
		c5.241,0,9.481,4.245,9.481,9.481v104.296C256,251.755,251.759,256,246.519,256z"/>
	<path style="fill:#F5AF73;" d="M284.444,256c-5.241,0-9.482-4.245-9.482-9.481v-94.815c0-5.236,4.241-9.481,9.482-9.481
		c5.241,0,9.481,4.245,9.481,9.481v94.815C293.926,251.755,289.685,256,284.444,256z"/>
	<path style="fill:#F5AF73;" d="M322.37,265.481c-5.241,0-9.481-4.245-9.481-9.481v-85.333c0-5.236,4.241-9.481,9.481-9.481
		c5.241,0,9.482,4.245,9.482,9.481V256C331.852,261.236,327.611,265.481,322.37,265.481z"/>
	<path style="fill:#F5AF73;" d="M208.593,293.926c-5.241,0-9.481-4.245-9.481-9.481V151.704c0-5.236,4.241-9.481,9.481-9.481
		c5.241,0,9.481,4.245,9.481,9.481v132.741C218.074,289.681,213.833,293.926,208.593,293.926z"/>
	<path style="fill:#F5AF73;" d="M217.604,360.076l-54.332-95.29c-2.913-5.109-9.312-7.049-14.573-4.42l0,0
		c-5.687,2.843-7.816,9.88-4.663,15.399l48.178,84.311c10.129,17.726,28.978,28.665,49.393,28.665h25.39
		C246.581,388.741,227.732,377.801,217.604,360.076z"/>
</g>
<path style="fill:#FF5050;" d="M256,0C114.842,0,0,114.842,0,256s114.842,256,256,256s256-114.842,256-256S397.158,0,256,0z
	 M37.926,256c0-53.311,19.257-102.19,51.142-140.117l307.048,307.048c-37.925,31.886-86.804,51.143-140.116,51.143
	C135.75,474.074,37.926,376.245,37.926,256z M422.932,396.117L115.883,89.068C153.809,57.183,202.688,37.926,256,37.926
	c120.25,0,218.074,97.829,218.074,218.074C474.074,309.311,454.817,358.19,422.932,396.117z"/>
<path style="fill:#C84146;" d="M199.666,466.657C106.641,441.755,37.926,356.768,37.926,256c0-53.311,19.257-102.19,51.142-140.117
	l58.913,58.913c5.659-11.889,12.198-23.279,19.552-34.078l-51.65-51.65C153.809,57.183,202.688,37.926,256,37.926
	c14.176,0,28.025,1.406,41.454,4.001c23.924-8.092,49.412-12.728,75.89-13.333C338.164,10.367,298.281,0,256,0
	C114.842,0,0,114.842,0,256s114.842,256,256,256c1.984,0,3.942-0.104,5.915-0.149C238.924,499.937,217.945,484.674,199.666,466.657z
	"/>
</svg>