<?xml version="1.0" encoding="iso-8859-1"?>
<!-- Uploaded to: SVG Repo, www.svgrepo.com, Generator: SVG Repo Mixer Tools -->
<svg height="800px" width="800px" version="1.1" id="Layer_1" xmlns="http://www.w3.org/2000/svg" xmlns:xlink="http://www.w3.org/1999/xlink" 
	 viewBox="0 0 512.001 512.001" xml:space="preserve">
<path style="fill:#F2BF7E;" d="M500.463,256c0,0-109.45,102.517-244.463,102.517S11.536,256,11.536,256
	s109.45-102.517,244.463-102.517S500.463,256,500.463,256z"/>
<path style="fill:#E2804F;" d="M397.946,256c0,29.02-8.709,56.006-23.655,78.488c-25.43,38.25-211.161,38.245-236.59-0.012
	c-14.942-22.479-23.648-49.461-23.648-78.476c0-29.02,8.709-56.006,23.655-78.488c25.43-38.25,210.858-38.42,236.324-0.389
	C389.136,199.682,397.946,226.812,397.946,256z"/>
<circle style="fill:#D4E4AC;" cx="256.003" cy="256.003" r="102.517"/>
<circle style="fill:#FFFFFF;" cx="256.003" cy="256.003" r="63.088"/>
<path d="M505.855,250.244c-1.144-1.072-28.532-26.541-73.04-52.327c-41.2-23.868-105.319-52.321-176.816-52.321
	c-71.495,0-135.615,28.452-176.815,52.321c-44.507,25.784-71.895,51.255-73.039,52.327L0,256l6.145,5.756
	c1.144,1.072,28.532,26.541,73.039,52.327c41.2,23.868,105.319,52.322,176.815,52.322s135.616-28.452,176.816-52.322
	c44.507-25.784,71.895-51.255,73.04-52.327l6.145-5.756L505.855,250.244z M350.63,256c0,52.18-42.451,94.63-94.63,94.63
	c-52.179,0-94.629-42.451-94.629-94.63s42.451-94.63,94.629-94.63C308.179,161.37,350.63,203.82,350.63,256z M87.446,300.639
	c-30.744-17.774-53.403-35.734-63.945-44.642c10.483-8.865,32.965-26.69,63.59-44.432c25.409-14.721,59.861-31.247,99.287-41.182
	c-24.868,20.26-40.782,51.113-40.782,85.616s15.912,65.355,40.78,85.615C147.098,331.716,112.772,315.281,87.446,300.639z
	 M424.907,300.434c-25.41,14.721-59.862,31.247-99.286,41.182c24.868-20.26,40.782-51.113,40.782-85.617
	c0-34.503-15.913-65.355-40.781-85.615c39.279,9.899,73.605,26.334,98.931,40.976c30.743,17.774,53.402,35.733,63.945,44.642
	C478.014,264.867,455.532,282.692,424.907,300.434z"/>
<path id="SVGCleanerId_0" d="M255.999,326.974c-39.135,0-70.973-31.839-70.973-70.974s31.838-70.974,70.973-70.974
	c39.136,0,70.974,31.839,70.974,70.974S295.135,326.974,255.999,326.974z M255.999,200.799c-30.436,0-55.2,24.763-55.2,55.201
	c0,30.438,24.763,55.201,55.2,55.201c30.438,0,55.201-24.763,55.201-55.201S286.437,200.799,255.999,200.799z"/>
<g>
	<path id="SVGCleanerId_0_1_" d="M255.999,326.974c-39.135,0-70.973-31.839-70.973-70.974s31.838-70.974,70.973-70.974
		c39.136,0,70.974,31.839,70.974,70.974S295.135,326.974,255.999,326.974z M255.999,200.799c-30.436,0-55.2,24.763-55.2,55.201
		c0,30.438,24.763,55.201,55.2,55.201c30.438,0,55.201-24.763,55.201-55.201S286.437,200.799,255.999,200.799z"/>
</g>
<path style="fill:#E2804F;" d="M293.12,281.967l-17.843-17.843c2.779-4.696,4.381-10.169,4.381-16.01
	c0-17.394-14.151-31.545-31.545-31.545s-31.545,14.151-31.545,31.545s14.151,31.545,31.545,31.545c5.841,0,11.314-1.602,16.01-4.381
	l17.842,17.843L293.12,281.967z M232.342,248.113c0-8.696,7.076-15.771,15.771-15.771c8.695,0,15.771,7.075,15.771,15.771
	c0,8.696-7.076,15.771-15.771,15.771C239.418,263.885,232.342,256.81,232.342,248.113z"/>
</svg>