<?xml version="1.0" encoding="iso-8859-1"?>
<!-- Uploaded to: SVG Repo, www.svgrepo.com, Generator: SVG Repo Mixer Tools -->
<svg version="1.1" id="Layer_1" xmlns="http://www.w3.org/2000/svg" xmlns:xlink="http://www.w3.org/1999/xlink" 
	 viewBox="0 0 511.999 511.999" xml:space="preserve">
<polygon style="fill:#D4E4AC;" points="353.102,384.071 281.062,384.071 257.048,408.085 233.034,384.071 160.995,384.071 
	160.995,272.009 353.102,272.009 "/>
<rect x="201.017" y="472.121" style="fill:#F2BF7E;" width="128.067" height="32.017"/>
<rect x="32.924" y="255.998" style="fill:#E2804F;" width="64.039" height="192.106"/>
<g>
	<rect x="481.168" y="272.006" style="fill:#F2BF7E;" width="24.014" height="160.092"/>
	<rect x="8.911" y="272.006" style="fill:#F2BF7E;" width="24.014" height="160.092"/>
</g>
<rect x="417.139" y="255.998" style="fill:#E2804F;" width="64.039" height="192.106"/>
<rect x="0.222" y="271.722" width="15.724" height="160.386"/>
<rect x="496.053" y="271.722" width="15.724" height="160.386"/>
<path d="M457.018,223.982h-15.724v-24.014c0-101.592-82.652-184.244-184.245-184.244S72.804,98.376,72.804,199.968v24.014H57.08
	v-24.014C57.08,89.706,146.786,0,257.048,0s199.969,89.706,199.969,199.968V223.982z"/>
<path d="M257.048,419.203l-27.271-27.27h-76.644V264.147h207.83v127.786h-76.644L257.048,419.203z M168.858,376.209h67.433
	l20.758,20.757l20.758-20.757h67.433v-96.338H168.858L168.858,376.209L168.858,376.209z"/>
<rect x="217.213" y="320.991" width="15.724" height="15.724"/>
<rect x="248.661" y="320.991" width="16.772" height="15.724"/>
<rect x="281.157" y="320.991" width="15.724" height="15.724"/>
<g>
	<rect x="56.827" y="409.046" style="fill:#FFFFFF;" width="15.724" height="15.724"/>
	<rect x="56.827" y="384.936" style="fill:#FFFFFF;" width="15.724" height="15.724"/>
	<rect x="56.827" y="360.826" style="fill:#FFFFFF;" width="15.724" height="15.724"/>
</g>
<path d="M456.22,248.137v-16.248h-15.724v16.248h-31.221v207.83h79.76v-207.83L456.22,248.137L456.22,248.137z M473.311,440.245
	h-48.312V263.863h48.312V440.245z"/>
<path d="M71.504,455.969h33.317v-207.83H71.504V231.89H55.78v16.248H25.063v207.83h30.719v41.134h113.213v-15.724H71.505v-25.41
	H71.504z M40.787,263.862h48.312v176.382H40.787V263.862z"/>
<path d="M193.155,481.378H177.38v15.724h15.775v14.897h143.796v-47.74H193.155V481.378z M208.879,479.983h112.347v16.293H208.879
	V479.983z"/>
</svg>