<?xml version="1.0" encoding="iso-8859-1"?>
<!-- Uploaded to: SVG Repo, www.svgrepo.com, Generator: SVG Repo Mixer Tools -->
<svg height="800px" width="800px" version="1.1" id="Layer_1" xmlns="http://www.w3.org/2000/svg" xmlns:xlink="http://www.w3.org/1999/xlink" 
	 viewBox="0 0 512 512" xml:space="preserve">
<path style="fill:#AFB9D2;" d="M256,0c-77.881,0-141.241,63.36-141.241,141.241c0,42.618,19.383,82.646,51.799,109.226
	l-25.094,222.26c-1.128,9.991,2.057,19.989,8.756,27.487c6.699,7.499,16.277,11.786,26.332,11.786h158.897
	c10.055,0,19.633-4.287,26.332-11.785c6.699-7.498,9.884-17.496,8.756-27.487l-25.094-222.26
	c32.416-26.581,51.799-66.609,51.799-109.227C397.241,63.36,333.88,0,256,0L256,0z"/>
<path style="fill:#C7CFE2;" d="M256,17.655c-68.146,0-123.586,55.441-123.586,123.586c0,37.113,16.525,71.948,45.338,95.573
	l7.426,6.09l-1.077,9.544l-23.986,212.443c-0.845,7.485,1.548,14.998,6.567,20.616c5.018,5.617,12.217,8.839,19.75,8.839h139.136
	c7.532,0,14.731-3.221,19.75-8.839c5.018-5.617,7.412-13.131,6.567-20.616l-23.986-212.443l-1.078-9.544l7.427-6.09
	c28.813-23.625,45.339-58.46,45.339-95.573C379.586,73.096,324.146,17.655,256,17.655L256,17.655z"/>
<path style="fill:#464655;" d="M256,35.31c58.411,0,105.931,47.52,105.931,105.931c0,31.804-14.171,61.663-38.878,81.921
	l-7.427,6.09c-4.631,3.797-7.021,9.683-6.349,15.634l1.078,9.544l23.986,212.442c0.591,5.235-3.505,9.818-8.771,9.818H186.432
	c-5.268,0-9.363-4.584-8.771-9.818l23.986-212.442l1.078-9.544c0.672-5.951-1.718-11.837-6.349-15.634l-7.427-6.09
	c-24.708-20.259-38.879-50.118-38.879-81.921C150.069,82.83,197.589,35.31,256,35.31"/>
<path style="fill:#5B5D6E;" d="M256,70.621c38.941,0,70.621,31.68,70.621,70.621c0,21.184-9.461,41.09-25.956,54.616l-7.427,6.09
	c-13.951,11.439-21.071,28.972-19.048,46.9l1.078,9.544l20.66,182.988h-79.854l20.66-182.988l1.078-9.544
	c2.024-17.928-5.097-35.459-19.048-46.9l-7.427-6.09c-16.495-13.526-25.956-33.432-25.956-54.616
	C185.379,102.301,217.059,70.621,256,70.621"/>
</svg>