<?xml version="1.0" encoding="iso-8859-1"?>
<!-- Uploaded to: SVG Repo, www.svgrepo.com, Generator: SVG Repo Mixer Tools -->
<svg version="1.1" id="Layer_1" xmlns="http://www.w3.org/2000/svg" xmlns:xlink="http://www.w3.org/1999/xlink" 
	 viewBox="0 0 512 512" xml:space="preserve">
<rect x="7.838" y="71.674" style="fill:#E2804F;" width="496.325" height="352.225"/>
<rect x="47.864" y="111.702" style="fill:#F2BF7E;" width="416.269" height="272.179"/>
<circle style="fill:#FFFFFF;" cx="167.94" cy="247.797" r="80.056"/>
<circle style="fill:#D4E4AC;" cx="167.94" cy="247.797" r="56.037"/>
<rect x="440.694" y="329.013" width="48.075" height="15.677"/>
<rect x="440.694" y="152.388" width="48.075" height="15.677"/>
<rect x="455.325" y="175.381" width="15.677" height="144.226"/>
<polygon points="471.002,392.769 38.324,392.769 38.324,104.317 471.002,104.317 471.002,144.032 455.325,144.032 455.325,119.994 
	54.001,119.994 54.001,377.092 455.325,377.092 455.325,352.01 471.002,352.01 "/>
<path d="M279.746,241.227h-24.184c-3.373-45.405-41.368-81.325-87.619-81.325c-48.463,0-87.891,39.428-87.891,87.891
	s39.428,87.89,87.891,87.89c45.386,0,82.845-34.582,87.419-78.78h24.386v-15.677H279.746z M167.943,320.007
	c-39.819,0-72.214-32.395-72.214-72.213c0-39.819,32.395-72.214,72.214-72.214c37.604,0,68.571,28.896,71.902,65.648h-8.363
	c-3.298-32.148-30.534-57.309-63.539-57.309c-35.22,0-63.875,28.654-63.875,63.875c0,35.22,28.654,63.874,63.875,63.874
	c32.127,0,58.778-23.845,63.214-54.764h8.405C235.066,292.435,204.674,320.007,167.943,320.007z M216.141,247.794
	c0,26.576-21.621,48.198-48.198,48.198s-48.199-21.621-48.199-48.198c0-26.576,21.621-48.199,48.199-48.199
	S216.141,221.216,216.141,247.794z"/>
<rect x="159.558" y="241.223" width="16.722" height="15.677"/>
<rect x="158.513" y="135.666" width="15.677" height="15.677"/>
<rect x="158.513" y="343.644" width="15.677" height="16.722"/>
<rect x="320.506" y="193.148" width="15.677" height="15.677"/>
<rect x="344.543" y="193.148" width="15.677" height="15.677"/>
<rect x="368.581" y="193.148" width="15.677" height="15.677"/>
<rect x="392.619" y="193.148" width="15.677" height="15.677"/>
<rect x="320.506" y="217.185" width="15.677" height="15.677"/>
<rect x="344.543" y="217.185" width="15.677" height="15.677"/>
<rect x="368.581" y="217.185" width="15.677" height="15.677"/>
<rect x="392.619" y="217.185" width="15.677" height="15.677"/>
<rect x="320.506" y="241.223" width="15.677" height="15.677"/>
<rect x="344.543" y="241.223" width="15.677" height="15.677"/>
<rect x="368.581" y="241.223" width="15.677" height="15.677"/>
<rect x="392.619" y="241.223" width="15.677" height="15.677"/>
<rect x="320.506" y="265.261" width="15.677" height="15.677"/>
<rect x="344.543" y="265.261" width="15.677" height="15.677"/>
<rect x="368.581" y="265.261" width="15.677" height="15.677"/>
<rect x="392.619" y="265.261" width="15.677" height="15.677"/>
<rect x="320.506" y="289.298" width="15.677" height="15.677"/>
<rect x="344.543" y="289.298" width="15.677" height="15.677"/>
<rect x="368.581" y="289.298" width="15.677" height="15.677"/>
<rect x="392.619" y="289.298" width="15.677" height="15.677"/>
<rect x="320.506" y="344.69" style="fill:#FFFFFF;" width="55.391" height="15.677"/>
<path d="M512,63.84H0v367.907h70.723v16.414H86.4v-16.414h337.572v16.414h15.677v-16.414H512L512,63.84L512,63.84z M496.323,416.07
	H15.677V79.517h480.647V416.07z"/>
</svg>